<svg width="24" height="24" viewBox="0 0 24 24" fill="none" xmlns="http://www.w3.org/2000/svg">
<path fill-rule="evenodd" clip-rule="evenodd" d="M18.8172 6.00003L18.8172 6.00007L18.8286 6.00095C19.5673 6.05777 19.9629 6.19822 20.1838 6.32981C20.3668 6.43884 20.5266 6.59695 20.6773 6.93838C20.8469 7.32272 20.9905 7.91157 21.0812 8.83034C21.171 9.73943 21.2 10.8639 21.2 12.2729C21.2 13.6817 21.171 14.8126 21.0811 15.7296C20.9902 16.657 20.8461 17.2559 20.6749 17.6473C20.522 17.9966 20.3633 18.1491 20.1928 18.2493C19.9855 18.3712 19.6033 18.5046 18.8745 18.5419L18.8745 18.5419L18.8668 18.5424C15.64 18.7216 8.39641 18.722 5.15309 18.5435C4.42619 18.4857 4.03527 18.3465 3.81623 18.216C3.63323 18.107 3.47345 17.9489 3.32273 17.6075C3.15307 17.2231 3.00946 16.6343 2.91877 15.7155C2.82903 14.8064 2.8 13.6819 2.8 12.2729C2.8 10.8639 2.82903 9.73943 2.91877 8.83034C3.00946 7.91157 3.15307 7.32272 3.32273 6.93838C3.47345 6.59695 3.63323 6.43884 3.81623 6.32981C4.0371 6.19822 4.43274 6.05777 5.17139 6.00095L5.17139 6.00098L5.18282 6.00003C8.38333 5.73332 15.6167 5.73332 18.8172 6.00003ZM1 12.2729C1 17.9562 1.45833 20.0646 5.03333 20.3396C8.33333 20.5229 15.6667 20.5229 18.9667 20.3396C22.5417 20.1562 23 17.9562 23 12.2729C23 6.58958 22.5417 4.48125 18.9667 4.20625C15.6667 3.93125 8.33333 3.93125 5.03333 4.20625C1.45833 4.48125 1 6.58958 1 12.2729ZM10.6972 15.2171C10.0323 15.5496 9.25 15.0661 9.25 14.3227V10.2254C9.25 9.48206 10.0323 8.99856 10.6972 9.33101L14.7945 11.3796C15.5315 11.7482 15.5315 12.8 14.7945 13.1685L10.6972 15.2171Z" fill="#29313D"/>
</svg>
